<mxfile host="app.diagrams.net" modified="2023-10-21T20:37:03.486Z" agent="Mozilla/5.0 (Windows NT 10.0; Win64; x64) AppleWebKit/537.36 (KHTML, like Gecko) Chrome/118.0.0.0 Safari/537.36" etag="V9NCcmIB_H3riGBz3NBx" version="22.0.6" type="device">
  <diagram name="PÃ¡gina-1" id="Mcpar856jq0S7g9masL_">
    <mxGraphModel dx="1605" dy="1588" grid="1" gridSize="10" guides="1" tooltips="1" connect="1" arrows="1" fold="1" page="1" pageScale="1" pageWidth="827" pageHeight="1169" math="0" shadow="0">
      <root>
        <mxCell id="0" />
        <mxCell id="1" parent="0" />
        <mxCell id="8paOcjg1AZ56eCSWSEGq-1" value="Inmueble" style="swimlane;fontStyle=0;childLayout=stackLayout;horizontal=1;startSize=26;horizontalStack=0;resizeParent=1;resizeParentMax=0;resizeLast=0;collapsible=1;marginBottom=0;align=center;fontSize=14;" parent="1" vertex="1">
          <mxGeometry x="90" y="265" width="160" height="146" as="geometry" />
        </mxCell>
        <mxCell id="8paOcjg1AZ56eCSWSEGq-2" value="&lt;u&gt;codigo&lt;/u&gt;" style="text;strokeColor=none;fillColor=none;spacingLeft=4;spacingRight=4;overflow=hidden;rotatable=0;points=[[0,0.5],[1,0.5]];portConstraint=eastwest;fontSize=12;whiteSpace=wrap;html=1;" parent="8paOcjg1AZ56eCSWSEGq-1" vertex="1">
          <mxGeometry y="26" width="160" height="30" as="geometry" />
        </mxCell>
        <mxCell id="k0gwqhvNZ4liX42efABq-1" value="superficie" style="text;strokeColor=none;fillColor=none;spacingLeft=4;spacingRight=4;overflow=hidden;rotatable=0;points=[[0,0.5],[1,0.5]];portConstraint=eastwest;fontSize=12;whiteSpace=wrap;html=1;" vertex="1" parent="8paOcjg1AZ56eCSWSEGq-1">
          <mxGeometry y="56" width="160" height="30" as="geometry" />
        </mxCell>
        <mxCell id="k0gwqhvNZ4liX42efABq-3" value="descripcion" style="text;strokeColor=none;fillColor=none;spacingLeft=4;spacingRight=4;overflow=hidden;rotatable=0;points=[[0,0.5],[1,0.5]];portConstraint=eastwest;fontSize=12;whiteSpace=wrap;html=1;" vertex="1" parent="8paOcjg1AZ56eCSWSEGq-1">
          <mxGeometry y="86" width="160" height="30" as="geometry" />
        </mxCell>
        <mxCell id="k0gwqhvNZ4liX42efABq-2" value="direccion" style="text;strokeColor=none;fillColor=none;spacingLeft=4;spacingRight=4;overflow=hidden;rotatable=0;points=[[0,0.5],[1,0.5]];portConstraint=eastwest;fontSize=12;whiteSpace=wrap;html=1;" vertex="1" parent="8paOcjg1AZ56eCSWSEGq-1">
          <mxGeometry y="116" width="160" height="30" as="geometry" />
        </mxCell>
        <mxCell id="8paOcjg1AZ56eCSWSEGq-5" value="Cliente" style="swimlane;fontStyle=0;childLayout=stackLayout;horizontal=1;startSize=26;horizontalStack=0;resizeParent=1;resizeParentMax=0;resizeLast=0;collapsible=1;marginBottom=0;align=center;fontSize=14;" parent="1" vertex="1">
          <mxGeometry x="480" y="-330" width="160" height="206" as="geometry" />
        </mxCell>
        <mxCell id="8paOcjg1AZ56eCSWSEGq-56" value="&lt;u&gt;codigo_personal&lt;/u&gt;" style="text;strokeColor=none;fillColor=none;spacingLeft=4;spacingRight=4;overflow=hidden;rotatable=0;points=[[0,0.5],[1,0.5]];portConstraint=eastwest;fontSize=12;whiteSpace=wrap;html=1;" parent="8paOcjg1AZ56eCSWSEGq-5" vertex="1">
          <mxGeometry y="26" width="160" height="30" as="geometry" />
        </mxCell>
        <mxCell id="8paOcjg1AZ56eCSWSEGq-45" value="dni" style="text;strokeColor=none;fillColor=none;spacingLeft=4;spacingRight=4;overflow=hidden;rotatable=0;points=[[0,0.5],[1,0.5]];portConstraint=eastwest;fontSize=12;whiteSpace=wrap;html=1;" parent="8paOcjg1AZ56eCSWSEGq-5" vertex="1">
          <mxGeometry y="56" width="160" height="30" as="geometry" />
        </mxCell>
        <mxCell id="8paOcjg1AZ56eCSWSEGq-49" value="telefono_fij" style="text;strokeColor=none;fillColor=none;spacingLeft=4;spacingRight=4;overflow=hidden;rotatable=0;points=[[0,0.5],[1,0.5]];portConstraint=eastwest;fontSize=12;whiteSpace=wrap;html=1;" parent="8paOcjg1AZ56eCSWSEGq-5" vertex="1">
          <mxGeometry y="86" width="160" height="30" as="geometry" />
        </mxCell>
        <mxCell id="8paOcjg1AZ56eCSWSEGq-48" value="movil" style="text;strokeColor=none;fillColor=none;spacingLeft=4;spacingRight=4;overflow=hidden;rotatable=0;points=[[0,0.5],[1,0.5]];portConstraint=eastwest;fontSize=12;whiteSpace=wrap;html=1;" parent="8paOcjg1AZ56eCSWSEGq-5" vertex="1">
          <mxGeometry y="116" width="160" height="30" as="geometry" />
        </mxCell>
        <mxCell id="8paOcjg1AZ56eCSWSEGq-47" value="nombre" style="text;strokeColor=none;fillColor=none;spacingLeft=4;spacingRight=4;overflow=hidden;rotatable=0;points=[[0,0.5],[1,0.5]];portConstraint=eastwest;fontSize=12;whiteSpace=wrap;html=1;" parent="8paOcjg1AZ56eCSWSEGq-5" vertex="1">
          <mxGeometry y="146" width="160" height="30" as="geometry" />
        </mxCell>
        <mxCell id="8paOcjg1AZ56eCSWSEGq-46" value="apellidos" style="text;strokeColor=none;fillColor=none;spacingLeft=4;spacingRight=4;overflow=hidden;rotatable=0;points=[[0,0.5],[1,0.5]];portConstraint=eastwest;fontSize=12;whiteSpace=wrap;html=1;" parent="8paOcjg1AZ56eCSWSEGq-5" vertex="1">
          <mxGeometry y="176" width="160" height="30" as="geometry" />
        </mxCell>
        <mxCell id="8paOcjg1AZ56eCSWSEGq-9" value="Trabajador" style="swimlane;fontStyle=0;childLayout=stackLayout;horizontal=1;startSize=26;horizontalStack=0;resizeParent=1;resizeParentMax=0;resizeLast=0;collapsible=1;marginBottom=0;align=center;fontSize=14;" parent="1" vertex="1">
          <mxGeometry x="-240" y="-320" width="160" height="206" as="geometry" />
        </mxCell>
        <mxCell id="8paOcjg1AZ56eCSWSEGq-55" value="&lt;u&gt;codigo_personal&lt;/u&gt;" style="text;strokeColor=none;fillColor=none;spacingLeft=4;spacingRight=4;overflow=hidden;rotatable=0;points=[[0,0.5],[1,0.5]];portConstraint=eastwest;fontSize=12;whiteSpace=wrap;html=1;" parent="8paOcjg1AZ56eCSWSEGq-9" vertex="1">
          <mxGeometry y="26" width="160" height="30" as="geometry" />
        </mxCell>
        <mxCell id="8paOcjg1AZ56eCSWSEGq-40" value="dni" style="text;strokeColor=none;fillColor=none;spacingLeft=4;spacingRight=4;overflow=hidden;rotatable=0;points=[[0,0.5],[1,0.5]];portConstraint=eastwest;fontSize=12;whiteSpace=wrap;html=1;" parent="8paOcjg1AZ56eCSWSEGq-9" vertex="1">
          <mxGeometry y="56" width="160" height="30" as="geometry" />
        </mxCell>
        <mxCell id="8paOcjg1AZ56eCSWSEGq-44" value="apellidos" style="text;strokeColor=none;fillColor=none;spacingLeft=4;spacingRight=4;overflow=hidden;rotatable=0;points=[[0,0.5],[1,0.5]];portConstraint=eastwest;fontSize=12;whiteSpace=wrap;html=1;" parent="8paOcjg1AZ56eCSWSEGq-9" vertex="1">
          <mxGeometry y="86" width="160" height="30" as="geometry" />
        </mxCell>
        <mxCell id="8paOcjg1AZ56eCSWSEGq-43" value="nombre" style="text;strokeColor=none;fillColor=none;spacingLeft=4;spacingRight=4;overflow=hidden;rotatable=0;points=[[0,0.5],[1,0.5]];portConstraint=eastwest;fontSize=12;whiteSpace=wrap;html=1;" parent="8paOcjg1AZ56eCSWSEGq-9" vertex="1">
          <mxGeometry y="116" width="160" height="30" as="geometry" />
        </mxCell>
        <mxCell id="8paOcjg1AZ56eCSWSEGq-42" value="movil" style="text;strokeColor=none;fillColor=none;spacingLeft=4;spacingRight=4;overflow=hidden;rotatable=0;points=[[0,0.5],[1,0.5]];portConstraint=eastwest;fontSize=12;whiteSpace=wrap;html=1;" parent="8paOcjg1AZ56eCSWSEGq-9" vertex="1">
          <mxGeometry y="146" width="160" height="30" as="geometry" />
        </mxCell>
        <mxCell id="8paOcjg1AZ56eCSWSEGq-41" value="telefono_fij" style="text;strokeColor=none;fillColor=none;spacingLeft=4;spacingRight=4;overflow=hidden;rotatable=0;points=[[0,0.5],[1,0.5]];portConstraint=eastwest;fontSize=12;whiteSpace=wrap;html=1;" parent="8paOcjg1AZ56eCSWSEGq-9" vertex="1">
          <mxGeometry y="176" width="160" height="30" as="geometry" />
        </mxCell>
        <mxCell id="8paOcjg1AZ56eCSWSEGq-13" value="Piso" style="swimlane;fontStyle=0;childLayout=stackLayout;horizontal=1;startSize=26;horizontalStack=0;resizeParent=1;resizeParentMax=0;resizeLast=0;collapsible=1;marginBottom=0;align=center;fontSize=14;" parent="1" vertex="1">
          <mxGeometry x="-120" y="580" width="160" height="56" as="geometry" />
        </mxCell>
        <mxCell id="8paOcjg1AZ56eCSWSEGq-14" value="&lt;u&gt;codigo_piso&lt;/u&gt;" style="text;strokeColor=none;fillColor=none;spacingLeft=4;spacingRight=4;overflow=hidden;rotatable=0;points=[[0,0.5],[1,0.5]];portConstraint=eastwest;fontSize=12;whiteSpace=wrap;html=1;" parent="8paOcjg1AZ56eCSWSEGq-13" vertex="1">
          <mxGeometry y="26" width="160" height="30" as="geometry" />
        </mxCell>
        <mxCell id="8paOcjg1AZ56eCSWSEGq-17" value="Local" style="swimlane;fontStyle=0;childLayout=stackLayout;horizontal=1;startSize=26;horizontalStack=0;resizeParent=1;resizeParentMax=0;resizeLast=0;collapsible=1;marginBottom=0;align=center;fontSize=14;" parent="1" vertex="1">
          <mxGeometry x="90" y="580" width="160" height="86" as="geometry" />
        </mxCell>
        <mxCell id="8paOcjg1AZ56eCSWSEGq-18" value="uso" style="text;strokeColor=none;fillColor=none;spacingLeft=4;spacingRight=4;overflow=hidden;rotatable=0;points=[[0,0.5],[1,0.5]];portConstraint=eastwest;fontSize=12;whiteSpace=wrap;html=1;" parent="8paOcjg1AZ56eCSWSEGq-17" vertex="1">
          <mxGeometry y="26" width="160" height="30" as="geometry" />
        </mxCell>
        <mxCell id="8paOcjg1AZ56eCSWSEGq-19" value="servicio" style="text;strokeColor=none;fillColor=none;spacingLeft=4;spacingRight=4;overflow=hidden;rotatable=0;points=[[0,0.5],[1,0.5]];portConstraint=eastwest;fontSize=12;whiteSpace=wrap;html=1;" parent="8paOcjg1AZ56eCSWSEGq-17" vertex="1">
          <mxGeometry y="56" width="160" height="30" as="geometry" />
        </mxCell>
        <mxCell id="8paOcjg1AZ56eCSWSEGq-21" value="Garaje" style="swimlane;fontStyle=0;childLayout=stackLayout;horizontal=1;startSize=26;horizontalStack=0;resizeParent=1;resizeParentMax=0;resizeLast=0;collapsible=1;marginBottom=0;align=center;fontSize=14;" parent="1" vertex="1">
          <mxGeometry x="320" y="580" width="160" height="86" as="geometry" />
        </mxCell>
        <mxCell id="8paOcjg1AZ56eCSWSEGq-22" value="numero" style="text;strokeColor=none;fillColor=none;spacingLeft=4;spacingRight=4;overflow=hidden;rotatable=0;points=[[0,0.5],[1,0.5]];portConstraint=eastwest;fontSize=12;whiteSpace=wrap;html=1;" parent="8paOcjg1AZ56eCSWSEGq-21" vertex="1">
          <mxGeometry y="26" width="160" height="30" as="geometry" />
        </mxCell>
        <mxCell id="8paOcjg1AZ56eCSWSEGq-23" value="planta" style="text;strokeColor=none;fillColor=none;spacingLeft=4;spacingRight=4;overflow=hidden;rotatable=0;points=[[0,0.5],[1,0.5]];portConstraint=eastwest;fontSize=12;whiteSpace=wrap;html=1;" parent="8paOcjg1AZ56eCSWSEGq-21" vertex="1">
          <mxGeometry y="56" width="160" height="30" as="geometry" />
        </mxCell>
        <mxCell id="8paOcjg1AZ56eCSWSEGq-25" value="" style="triangle;whiteSpace=wrap;html=1;rotation=90;" parent="1" vertex="1">
          <mxGeometry x="140" y="430" width="60" height="80" as="geometry" />
        </mxCell>
        <mxCell id="8paOcjg1AZ56eCSWSEGq-35" value="" style="endArrow=none;html=1;rounded=0;" parent="1" source="8paOcjg1AZ56eCSWSEGq-93" target="8paOcjg1AZ56eCSWSEGq-1" edge="1">
          <mxGeometry width="50" height="50" relative="1" as="geometry">
            <mxPoint x="570" y="360" as="sourcePoint" />
            <mxPoint x="620" y="310" as="targetPoint" />
          </mxGeometry>
        </mxCell>
        <mxCell id="8paOcjg1AZ56eCSWSEGq-36" value="" style="endArrow=none;html=1;rounded=0;exitX=0.5;exitY=1;exitDx=0;exitDy=0;" parent="1" source="8paOcjg1AZ56eCSWSEGq-25" target="8paOcjg1AZ56eCSWSEGq-13" edge="1">
          <mxGeometry width="50" height="50" relative="1" as="geometry">
            <mxPoint x="570" y="530" as="sourcePoint" />
            <mxPoint x="620" y="480" as="targetPoint" />
          </mxGeometry>
        </mxCell>
        <mxCell id="8paOcjg1AZ56eCSWSEGq-37" value="" style="endArrow=none;html=1;rounded=0;entryX=1;entryY=0.5;entryDx=0;entryDy=0;exitX=0.5;exitY=0;exitDx=0;exitDy=0;" parent="1" source="8paOcjg1AZ56eCSWSEGq-17" target="8paOcjg1AZ56eCSWSEGq-25" edge="1">
          <mxGeometry width="50" height="50" relative="1" as="geometry">
            <mxPoint x="410" y="560" as="sourcePoint" />
            <mxPoint x="460" y="510" as="targetPoint" />
          </mxGeometry>
        </mxCell>
        <mxCell id="8paOcjg1AZ56eCSWSEGq-39" value="" style="endArrow=none;html=1;rounded=0;exitX=0.5;exitY=0;exitDx=0;exitDy=0;" parent="1" source="8paOcjg1AZ56eCSWSEGq-25" target="8paOcjg1AZ56eCSWSEGq-21" edge="1">
          <mxGeometry width="50" height="50" relative="1" as="geometry">
            <mxPoint x="250" y="590" as="sourcePoint" />
            <mxPoint x="300" y="540" as="targetPoint" />
          </mxGeometry>
        </mxCell>
        <mxCell id="8paOcjg1AZ56eCSWSEGq-54" style="edgeStyle=orthogonalEdgeStyle;rounded=0;orthogonalLoop=1;jettySize=auto;html=1;endArrow=ERzeroToOne;endFill=0;" parent="1" source="8paOcjg1AZ56eCSWSEGq-51" target="8paOcjg1AZ56eCSWSEGq-13" edge="1">
          <mxGeometry relative="1" as="geometry" />
        </mxCell>
        <mxCell id="8paOcjg1AZ56eCSWSEGq-51" value="asociado" style="shape=rhombus;perimeter=rhombusPerimeter;whiteSpace=wrap;html=1;align=center;" parent="1" vertex="1">
          <mxGeometry x="110" y="785" width="120" height="60" as="geometry" />
        </mxCell>
        <mxCell id="8paOcjg1AZ56eCSWSEGq-53" style="edgeStyle=orthogonalEdgeStyle;rounded=0;orthogonalLoop=1;jettySize=auto;html=1;entryX=0.503;entryY=0.986;entryDx=0;entryDy=0;entryPerimeter=0;endArrow=ERzeroToOne;endFill=0;" parent="1" source="8paOcjg1AZ56eCSWSEGq-51" target="8paOcjg1AZ56eCSWSEGq-23" edge="1">
          <mxGeometry relative="1" as="geometry">
            <Array as="points">
              <mxPoint x="400" y="815" />
            </Array>
          </mxGeometry>
        </mxCell>
        <mxCell id="8paOcjg1AZ56eCSWSEGq-63" value="Alquiler" style="swimlane;fontStyle=0;childLayout=stackLayout;horizontal=1;startSize=26;horizontalStack=0;resizeParent=1;resizeParentMax=0;resizeLast=0;collapsible=1;marginBottom=0;align=center;fontSize=14;" parent="1" vertex="1">
          <mxGeometry x="480" y="60" width="160" height="176" as="geometry" />
        </mxCell>
        <mxCell id="8paOcjg1AZ56eCSWSEGq-64" value="&lt;u&gt;id_alquiler&lt;/u&gt;" style="text;strokeColor=none;fillColor=none;spacingLeft=4;spacingRight=4;overflow=hidden;rotatable=0;points=[[0,0.5],[1,0.5]];portConstraint=eastwest;fontSize=12;whiteSpace=wrap;html=1;" parent="8paOcjg1AZ56eCSWSEGq-63" vertex="1">
          <mxGeometry y="26" width="160" height="30" as="geometry" />
        </mxCell>
        <mxCell id="8paOcjg1AZ56eCSWSEGq-65" value="aÃ±o" style="text;strokeColor=none;fillColor=none;spacingLeft=4;spacingRight=4;overflow=hidden;rotatable=0;points=[[0,0.5],[1,0.5]];portConstraint=eastwest;fontSize=12;whiteSpace=wrap;html=1;" parent="8paOcjg1AZ56eCSWSEGq-63" vertex="1">
          <mxGeometry y="56" width="160" height="30" as="geometry" />
        </mxCell>
        <mxCell id="8paOcjg1AZ56eCSWSEGq-66" value="mes" style="text;strokeColor=none;fillColor=none;spacingLeft=4;spacingRight=4;overflow=hidden;rotatable=0;points=[[0,0.5],[1,0.5]];portConstraint=eastwest;fontSize=12;whiteSpace=wrap;html=1;" parent="8paOcjg1AZ56eCSWSEGq-63" vertex="1">
          <mxGeometry y="86" width="160" height="30" as="geometry" />
        </mxCell>
        <mxCell id="8paOcjg1AZ56eCSWSEGq-67" value="valor" style="text;strokeColor=none;fillColor=none;spacingLeft=4;spacingRight=4;overflow=hidden;rotatable=0;points=[[0,0.5],[1,0.5]];portConstraint=eastwest;fontSize=12;whiteSpace=wrap;html=1;" parent="8paOcjg1AZ56eCSWSEGq-63" vertex="1">
          <mxGeometry y="116" width="160" height="30" as="geometry" />
        </mxCell>
        <mxCell id="8paOcjg1AZ56eCSWSEGq-68" value="nombre_agente" style="text;strokeColor=none;fillColor=none;spacingLeft=4;spacingRight=4;overflow=hidden;rotatable=0;points=[[0,0.5],[1,0.5]];portConstraint=eastwest;fontSize=12;whiteSpace=wrap;html=1;" parent="8paOcjg1AZ56eCSWSEGq-63" vertex="1">
          <mxGeometry y="146" width="160" height="30" as="geometry" />
        </mxCell>
        <mxCell id="8paOcjg1AZ56eCSWSEGq-81" style="edgeStyle=orthogonalEdgeStyle;rounded=0;orthogonalLoop=1;jettySize=auto;html=1;endArrow=ERzeroToMany;endFill=0;" parent="1" source="8paOcjg1AZ56eCSWSEGq-69" target="8paOcjg1AZ56eCSWSEGq-63" edge="1">
          <mxGeometry relative="1" as="geometry">
            <Array as="points">
              <mxPoint x="290" y="-217" />
              <mxPoint x="290" y="80" />
            </Array>
          </mxGeometry>
        </mxCell>
        <mxCell id="8paOcjg1AZ56eCSWSEGq-86" style="edgeStyle=orthogonalEdgeStyle;rounded=0;orthogonalLoop=1;jettySize=auto;html=1;endArrow=ERmandOne;endFill=0;" parent="1" source="8paOcjg1AZ56eCSWSEGq-69" target="8paOcjg1AZ56eCSWSEGq-9" edge="1">
          <mxGeometry relative="1" as="geometry" />
        </mxCell>
        <mxCell id="8paOcjg1AZ56eCSWSEGq-69" value="Gestiona" style="shape=rhombus;perimeter=rhombusPerimeter;whiteSpace=wrap;html=1;align=center;" parent="1" vertex="1">
          <mxGeometry x="40" y="-247" width="120" height="60" as="geometry" />
        </mxCell>
        <mxCell id="8paOcjg1AZ56eCSWSEGq-82" style="edgeStyle=orthogonalEdgeStyle;rounded=0;orthogonalLoop=1;jettySize=auto;html=1;endArrow=ERoneToMany;endFill=0;" parent="1" source="8paOcjg1AZ56eCSWSEGq-70" target="8paOcjg1AZ56eCSWSEGq-5" edge="1">
          <mxGeometry relative="1" as="geometry" />
        </mxCell>
        <mxCell id="8paOcjg1AZ56eCSWSEGq-83" style="edgeStyle=orthogonalEdgeStyle;rounded=0;orthogonalLoop=1;jettySize=auto;html=1;endArrow=ERoneToMany;endFill=0;" parent="1" source="8paOcjg1AZ56eCSWSEGq-70" target="8paOcjg1AZ56eCSWSEGq-63" edge="1">
          <mxGeometry relative="1" as="geometry" />
        </mxCell>
        <mxCell id="8paOcjg1AZ56eCSWSEGq-70" value="Renta" style="shape=rhombus;perimeter=rhombusPerimeter;whiteSpace=wrap;html=1;align=center;" parent="1" vertex="1">
          <mxGeometry x="500" y="-70" width="120" height="60" as="geometry" />
        </mxCell>
        <mxCell id="8paOcjg1AZ56eCSWSEGq-71" value="Compra" style="swimlane;fontStyle=0;childLayout=stackLayout;horizontal=1;startSize=26;horizontalStack=0;resizeParent=1;resizeParentMax=0;resizeLast=0;collapsible=1;marginBottom=0;align=center;fontSize=14;" parent="1" vertex="1">
          <mxGeometry x="-240" y="70" width="160" height="116" as="geometry" />
        </mxCell>
        <mxCell id="8paOcjg1AZ56eCSWSEGq-72" value="&lt;u&gt;id_compra&lt;/u&gt;" style="text;strokeColor=none;fillColor=none;spacingLeft=4;spacingRight=4;overflow=hidden;rotatable=0;points=[[0,0.5],[1,0.5]];portConstraint=eastwest;fontSize=12;whiteSpace=wrap;html=1;" parent="8paOcjg1AZ56eCSWSEGq-71" vertex="1">
          <mxGeometry y="26" width="160" height="30" as="geometry" />
        </mxCell>
        <mxCell id="8paOcjg1AZ56eCSWSEGq-73" value="fecha" style="text;strokeColor=none;fillColor=none;spacingLeft=4;spacingRight=4;overflow=hidden;rotatable=0;points=[[0,0.5],[1,0.5]];portConstraint=eastwest;fontSize=12;whiteSpace=wrap;html=1;" parent="8paOcjg1AZ56eCSWSEGq-71" vertex="1">
          <mxGeometry y="56" width="160" height="30" as="geometry" />
        </mxCell>
        <mxCell id="8paOcjg1AZ56eCSWSEGq-74" value="valor" style="text;strokeColor=none;fillColor=none;spacingLeft=4;spacingRight=4;overflow=hidden;rotatable=0;points=[[0,0.5],[1,0.5]];portConstraint=eastwest;fontSize=12;whiteSpace=wrap;html=1;" parent="8paOcjg1AZ56eCSWSEGq-71" vertex="1">
          <mxGeometry y="86" width="160" height="30" as="geometry" />
        </mxCell>
        <mxCell id="8paOcjg1AZ56eCSWSEGq-84" style="edgeStyle=orthogonalEdgeStyle;rounded=0;orthogonalLoop=1;jettySize=auto;html=1;endArrow=ERmandOne;endFill=0;" parent="1" source="8paOcjg1AZ56eCSWSEGq-75" target="8paOcjg1AZ56eCSWSEGq-9" edge="1">
          <mxGeometry relative="1" as="geometry" />
        </mxCell>
        <mxCell id="8paOcjg1AZ56eCSWSEGq-85" style="edgeStyle=orthogonalEdgeStyle;rounded=0;orthogonalLoop=1;jettySize=auto;html=1;entryX=0.5;entryY=0;entryDx=0;entryDy=0;endArrow=ERzeroToMany;endFill=0;" parent="1" source="8paOcjg1AZ56eCSWSEGq-75" target="8paOcjg1AZ56eCSWSEGq-71" edge="1">
          <mxGeometry relative="1" as="geometry" />
        </mxCell>
        <mxCell id="8paOcjg1AZ56eCSWSEGq-75" value="Gestiona" style="shape=rhombus;perimeter=rhombusPerimeter;whiteSpace=wrap;html=1;align=center;" parent="1" vertex="1">
          <mxGeometry x="-220" y="-60" width="120" height="60" as="geometry" />
        </mxCell>
        <mxCell id="8paOcjg1AZ56eCSWSEGq-78" style="edgeStyle=orthogonalEdgeStyle;rounded=0;orthogonalLoop=1;jettySize=auto;html=1;endArrow=ERoneToMany;endFill=0;" parent="1" source="8paOcjg1AZ56eCSWSEGq-76" target="8paOcjg1AZ56eCSWSEGq-71" edge="1">
          <mxGeometry relative="1" as="geometry">
            <Array as="points">
              <mxPoint x="-500" y="-390" />
              <mxPoint x="-500" y="118" />
            </Array>
          </mxGeometry>
        </mxCell>
        <mxCell id="8paOcjg1AZ56eCSWSEGq-79" style="edgeStyle=orthogonalEdgeStyle;rounded=0;orthogonalLoop=1;jettySize=auto;html=1;endArrow=ERoneToMany;endFill=0;" parent="1" source="8paOcjg1AZ56eCSWSEGq-76" target="8paOcjg1AZ56eCSWSEGq-5" edge="1">
          <mxGeometry relative="1" as="geometry" />
        </mxCell>
        <mxCell id="8paOcjg1AZ56eCSWSEGq-76" value="Compra" style="shape=rhombus;perimeter=rhombusPerimeter;whiteSpace=wrap;html=1;align=center;" parent="1" vertex="1">
          <mxGeometry x="500" y="-420" width="120" height="60" as="geometry" />
        </mxCell>
        <mxCell id="8paOcjg1AZ56eCSWSEGq-89" style="edgeStyle=orthogonalEdgeStyle;rounded=0;orthogonalLoop=1;jettySize=auto;html=1;endArrow=ERzeroToMany;endFill=0;" parent="1" source="8paOcjg1AZ56eCSWSEGq-87" target="8paOcjg1AZ56eCSWSEGq-71" edge="1">
          <mxGeometry relative="1" as="geometry" />
        </mxCell>
        <mxCell id="8paOcjg1AZ56eCSWSEGq-90" style="edgeStyle=orthogonalEdgeStyle;rounded=0;orthogonalLoop=1;jettySize=auto;html=1;endArrow=ERmandOne;endFill=0;" parent="1" source="8paOcjg1AZ56eCSWSEGq-87" target="8paOcjg1AZ56eCSWSEGq-1" edge="1">
          <mxGeometry relative="1" as="geometry" />
        </mxCell>
        <mxCell id="8paOcjg1AZ56eCSWSEGq-87" value="Realiza" style="shape=rhombus;perimeter=rhombusPerimeter;whiteSpace=wrap;html=1;align=center;" parent="1" vertex="1">
          <mxGeometry x="-220" y="308" width="120" height="60" as="geometry" />
        </mxCell>
        <mxCell id="8paOcjg1AZ56eCSWSEGq-91" style="edgeStyle=orthogonalEdgeStyle;rounded=0;orthogonalLoop=1;jettySize=auto;html=1;endArrow=ERzeroToMany;endFill=0;" parent="1" source="8paOcjg1AZ56eCSWSEGq-88" target="8paOcjg1AZ56eCSWSEGq-63" edge="1">
          <mxGeometry relative="1" as="geometry" />
        </mxCell>
        <mxCell id="8paOcjg1AZ56eCSWSEGq-92" style="edgeStyle=orthogonalEdgeStyle;rounded=0;orthogonalLoop=1;jettySize=auto;html=1;endArrow=ERmandOne;endFill=0;" parent="1" source="8paOcjg1AZ56eCSWSEGq-88" target="8paOcjg1AZ56eCSWSEGq-1" edge="1">
          <mxGeometry relative="1" as="geometry" />
        </mxCell>
        <mxCell id="8paOcjg1AZ56eCSWSEGq-88" value="Asigna" style="shape=rhombus;perimeter=rhombusPerimeter;whiteSpace=wrap;html=1;align=center;" parent="1" vertex="1">
          <mxGeometry x="500" y="308" width="120" height="60" as="geometry" />
        </mxCell>
        <mxCell id="8paOcjg1AZ56eCSWSEGq-94" value="" style="endArrow=none;html=1;rounded=0;exitX=0;exitY=0.5;exitDx=0;exitDy=0;" parent="1" source="8paOcjg1AZ56eCSWSEGq-25" target="8paOcjg1AZ56eCSWSEGq-93" edge="1">
          <mxGeometry width="50" height="50" relative="1" as="geometry">
            <mxPoint x="170" y="440" as="sourcePoint" />
            <mxPoint x="170" y="366" as="targetPoint" />
          </mxGeometry>
        </mxCell>
        <mxCell id="8paOcjg1AZ56eCSWSEGq-93" value="" style="ellipse;whiteSpace=wrap;html=1;aspect=fixed;" parent="1" vertex="1">
          <mxGeometry x="160" y="410" width="20" height="20" as="geometry" />
        </mxCell>
        <mxCell id="8paOcjg1AZ56eCSWSEGq-95" value="" style="endArrow=none;html=1;rounded=0;edgeStyle=orthogonalEdgeStyle;curved=1;" parent="1" edge="1">
          <mxGeometry width="50" height="50" relative="1" as="geometry">
            <mxPoint x="-20" y="530" as="sourcePoint" />
            <mxPoint x="360" y="530" as="targetPoint" />
            <Array as="points">
              <mxPoint x="-20" y="550" />
              <mxPoint x="360" y="550" />
            </Array>
          </mxGeometry>
        </mxCell>
        <mxCell id="zbIGRtpKsvbfv4JogEP--1" value="&lt;div align=&quot;left&quot;&gt;&lt;div align=&quot;left&quot;&gt;Inmueble(codigo_pk, superficie, descripcion, direccion)&lt;/div&gt;&lt;/div&gt;&lt;div align=&quot;left&quot;&gt;Trabajador(codigo_personal_pk, dni, apellidos, nombre, movil, telefono_fij)&lt;/div&gt;&lt;div align=&quot;left&quot;&gt;Cliente(codigo_personal_pk, dni, telefono_fij, movil, nombre, apellidos)&lt;/div&gt;&lt;div align=&quot;left&quot;&gt;Compra(id_compra_pk, fecha, valor, codigo_personal_fk, codigo_inmueble_fk)&lt;/div&gt;&lt;div align=&quot;left&quot;&gt;Compra_Cliente(id_compra_pk_fk, id_cliente_pk_fk)&lt;/div&gt;&lt;div align=&quot;left&quot;&gt;Alquiler(id_alquiler, aÃ±o, mes, valor, nombre_agente, cod_inmueble_fk)&lt;/div&gt;&lt;div align=&quot;left&quot;&gt;Alquiler_cliente(codigo_personal_pk_fk, id_alquiler_pk_fk)&lt;/div&gt;&lt;div align=&quot;left&quot;&gt;Piso(codigo_piso_pk, codigo_fk_pk,)&lt;/div&gt;&lt;div align=&quot;left&quot;&gt;Local(uso, servicio, codigo_fk_pk)&lt;/div&gt;&lt;div align=&quot;left&quot;&gt;Garaje(numero, planta, codigo_fk_pk)&lt;/div&gt;&lt;div align=&quot;left&quot;&gt;Piso_garaje(codigo_inmueble_fk_pk, codigo_piso_fk) &lt;br&gt;&lt;/div&gt;&lt;div align=&quot;left&quot;&gt;&lt;br&gt;&lt;/div&gt;&lt;div align=&quot;left&quot;&gt;&lt;br&gt;&lt;/div&gt;" style="text;html=1;strokeColor=none;fillColor=none;align=left;verticalAlign=middle;whiteSpace=wrap;rounded=0;" parent="1" vertex="1">
          <mxGeometry x="-710" y="130" width="490" height="280" as="geometry" />
        </mxCell>
      </root>
    </mxGraphModel>
  </diagram>
</mxfile>
